# xmcd
#
# Track frame offsets: 
#        150
#        9684
#        20410
#        30780
#        40103
#        53256
#        64432
#        75226
#        87393
#        97272
#        107764
#        118402
#
# Disc length: 1725 seconds
#
# Revision: 0
# Processed by: cddbd v1.5.2PL0 Copyright (c) Steve Scherf et al.
# Submitted via: ExactAudioCopy v1.3
#
DISCID=8e06bb0c
DTITLE=Johnny Horton - The Fantastic Johnny Horton
DYEAR=1959
DGENRE=Country
TTITLE0=Broken Hearted Gypsy
TTITLE1=First Train Headin' South
TTITLE2=Move Down The Line
TTITLE3=S.S. Lureline
TTITLE4=Child's Side Of Life
TTITLE5=All For The Love Of A Girl
TTITLE6=The Mansion You Stole
TTITLE7=The Train With The Rhumba Beat
TTITLE8=Two Red Lips And Warm Red Wine
TTITLE9=Ridin' The Sunshine Special
TTITLE10=Big Wheels Rollin'
TTITLE11=The Devil Made A Masterpiece
EXTD=
EXTT0=
EXTT1=
EXTT2=
EXTT3=
EXTT4=
EXTT5=
EXTT6=
EXTT7=
EXTT8=
EXTT9=
EXTT10=
EXTT11=
PLAYORDER=
